/* XPM */
static char * fixedfont_xpm[] = {
"973 17 4 1",
" 	c #FFFFFF",
".	c #000000",
"+	c #FFFF00",
"@	c #FF00FF",
"+@@@@@@@@@+@@@@@@@@@+++@@@@@@@@@+++@@@@@@@@@++@@@@@@@@@+++@@@@@@@@@++@@@@@@@@@+++@@@@@@@@@+++@@@@@@@@@++@@@@@@@@@+++@@@@@@@@+++@@@@@@@@@+++@@@@@@@@@+++@@@@@@@@@@+@@@@@@@@@+++@@@@@@@@@++@@@@@@@@@+++@@@@@@@@@+++@@@@@@@@@++@@@@@@@@@+++@@@@@@@@@++@@@@@@@@@+++@@@@@@@@@+++@@@@@@@@@@+@@@@@@@@@++@@@@@@@@@@++@@@@@@@@@+++@@@@@@@@@+++@@@@@@@@@++@@@@@@@@@+++@@@@@@@@@++@@@@@@@@@+++@@@@@@@@@+++@@@@@@@@@++@@@@@@@@@++++@@@@@@@+++@@@@@@@@@+++@@@@@@@@@+++@@@@@@@@@++@@@@@@@@@@++@@@@@@@@@@+@@@@@@@@@+++@@@@@@@@@+++@@@@@@@@@++@@@@@@@@@+++@@@@@@@@@++@@@@@@@@@+++@@@@@@@@@+++@@@@@@@@@++@@@@@@@@@@++@@@@@@@@@++@@@@@@@@@+++@@@@@@@@@++++@@@@@@@@@+@@@@@@@@@+++@@@@@@@@@++@@@@@@@@@+++@@@@@@@@@+++@@@@@@@@@++@@@@@@@@@+++@@@@@@@@@++@@@@@@@@@+++@@@@@@@@@+++++@@@@@@+++++@@@@@@+++++@@@@@@@+++@@@@@@@@@+++@@@@@@@@@+++@@@@@@@@@++@@@@@@@@@++++@@@@@@@++++@@@@@@@++++++@@@@@@++++++@@@@@@++@@@@@@@@@@@++@@@@@@@@@@++.....@@+++++@.....@++++@@@@@@@@@@+@@@@@@@@@@++@@@@@@@@@+++@@@@@@@+++++@@@@@@@++++@@@@@@@@@+",
"+@@@@@@@@@+@@@@@@@@@+++@@@@@@@@@+++@@@@@@@@@++@@@@@@@@@+++@@@@@@@@@++@@@@@@@@@+++@@@@@@@@@+++@@@@@@@@@++@@....@@@+++@@@....@+++@@@@@@@@@+++@@@@@@@@@+++@@@@@@@@@@+@@@@@@@@@+++@@@@@@@@@++@@@@@@@@@+++@@@@@@@@@+++@@@@@@@@@++@@@@@@@@@+++@@@@@@@@@++@@@@@@@@@+++@@@@@@@@@+++@@@@@@@@@@+@@@@@@@@@++@@@@@@@@@@++@@@@@@@@@+++@@@@@@@@@+++@@@@@@@@@++@@@@@@@@@+++@@@@@@@@@++@@@@@@@@@+++@@@@@@@@@+++@@@@@@@@@++@@@@@@@@@++++@@@@@@@+++@@@@@@@@@+++@@@@@@@@@+++@@@@@@@@@++@@@@@@@@@@++@@@@@@@@@@+@@@@@@@@@+++@@@@@@@@@+++@@@@@@@@@++@@@@@@@@@+++@@@@@@@@@++@@@@@@@@@+++@@@@@@@@@+++@@@@@@@@@++@@@@@@@@@@++@@@@@@@@@++@@@@@@@@@+++@@@@@@@@@++++@@@@@@@@@+@@@@@@@@@+++@@@@@@@@@++@@@@@@@@@+++@@@@@@@@@+++@@@@@@@@@++@@@@@@@@@+++@@@@@@@@@++@@@@@@@@@+++@@@@@@@@@+++++@@@@@@+++++@@@@@@+++++@@@@@@@+++@@@@@@@@@+++@@@@@@@@@+++@@@@@@@@@++@@@@@@@@@++++@@@@@@@++++@@@@@@@++++++@@@@@@++++++@@@@@@++@.....@@@@@++@@@@@@@@@@++.   ..@+++++@.   ..++++@@@@@@@@@@+@@@@@@@@@@++@@@@@@@@@+++@@@@@@@+++++@@@@@@@++++........@+",
"+@@@@@@@@@+@@@@@@@@@+++....@@@@@+++@@@@@@@@@++@@@@....@+++@@@@@@@@@++@@......@+++@@@@@@@@@+++....@@@@@++@@.  ..@@+++@@@.  ..+++....@@@@@+++......@@@+++@@@@@@@@@@+@@@@@@@@@+++@@@@@@@@@++@@@@@@@@@+++@@@@@@@@@+++@@@@@@@@@++@@@@@@@@@+++@....@@@@++@@@@@@@@@+++@@@@@@@@@+++@@@@@@@@@@+@@@@@@@@@++@@@@@@@@@@++@@@@@@@@@+++@@....@@@+++.......@@++@......@@+++......@@@++........@+++........@+++@......@@++........@++++......@+++@@@@....@+++........@+++....@@@@@++....@....@++....@....@+@......@@+++.......@@+++@......@@++.......@@+++@......@@++........@+++........@+++........@++....@....@++........@++........@+++........@++++@......@@+@@@....@@+++@......@@++@......@@+++@....@@@@+++........@++@@.....@@+++........@++@......@@+++@......@@+++++@@@@@@+++++@@@@@@+++++@....@@+++@......@@+++@@@@@@@@@+++@@@@@@@@@++@@@@....@++++@@....@++++....@@@++++++@@@@@@++++++@@@@@@++..   ..@@@@++@.....@@@@++..  ..@+++++..  ...++++@@@@@@@@@@+@.......@@++@@@@@@@@@+++......@+++++......@++++.  ..  ..+",
"+@@@@@@@@@+@@@@@@@@@+++.  ..@@@@+++@@@@@@@@@++@@@@.  ..+++@@@@@@@@@++@..    ..+++@@@@@@@@@+++.  ..@@@@++@@.  ..@@+++@@@.  ..+++.  ..@@@@+++.    ..@@+++@@@@@@@@@@+@@@@@@@@@+++@@@@@@@@@++@@@@@@@@@+++@@@@@@@@@+++@@@@@@@@@++@@@@@@@@@+++@.  ..@@@++@@@@@@@@@+++@@@@@@@@@+++@@@@@@@@@@+@@@@@@@@@++@@@@@@@@@@++@@@@@@@@@+++@..  ..@@+++.     ..@++..    ..@+++.    ..@@++.      ..+++.      ..+++..    ..@++.  ..  ..++++.    ..+++@@@@.  ..+++.  ..  ..+++.  ..@@@@++.  ...  ..++.  ...  ..+..    ..@+++.     ..@+++..    ..@++.     ..@+++..    ..@++.      ..+++.  ..  ..+++.  ..  ..++.  ...  ..++.  ..  ..++.  ..  ..+++.      ..++++..    ..@+@@..  ..@+++..    ..@++..    ..@+++@.  ..@@@+++.      ..++@@.   ..@+++.      ..++..    ..@+++..    ..@+++++@@@@@@+++++@@@@@@+++++..  ..@+++..    ..@+++@@@@@@@@@+++@@@@@@@@@++@@@@.  ..++++@..  ..++++.  ..@@++++++@@@@@@++++++@@@@@@++.  .  ...@@++..   ..@@@++@..  ..+++++.  ....++++@@@@@@@@@@+@.  .  ..@++@@@@@@@@@+++.    ..+++++.    ..++++.  ..  ..+",
"+@@@@@@@@@+@......@@+++.  ....@@+++@......@@++@....  ..+++@......@@++@.  .....+++@.......@+++.  ....@@++.......@@+++@.......+++.  .....@+++...  ..@@+++........@@+.......@@+++@......@@++.......@@+++@.......@+++........@++@.......@+++..  ....@++........@+++........@+++....@....@+........@++@........@++........@+++..    ..@+++.  ..  ..++.  ..  ..+++.  .  ..@++.  ......+++.  ......+++.  ..  ..++.  ..  ..++++..  ...+++@@@@.  ..+++.  ..  ..+++.  ..@@@@++.  ...  ..++.  ...  ..+.  ..  ..+++.  ..  ..+++.  ..  ..++.  ..  ..+++.  ..  ..++...  ....+++.  ..  ..+++.  ..  ..++.  ...  ..++.  ..  ..++.  ..  ..+++.....  ..++++.  ..  ..+...   ..@+++.  ..  ..++.  ..  ..+++@.  ....@+++.  ......++@..  ...@+++.....  ..++.  ..  ..+++.  ..  ..+++++@@@@@@+++++@@@@@@+++++.    ..+++.  ..  ..+++@@@@@@@@@+++@@....@@@++@@@..  ..++++@.  ...++++..  ..@++++++.....@++++++.....@++.  .  . ..@++.  .  ..@@++@@.....+++++......@++++@.......@@+..  .  ..@++@@@@@@@@@+++.  ....+++++...  ..++++.........+",
"+@@@@@@@@@+@.    ..@+++.     ..@+++..    ..@++..     ..+++..    ..@++@.  .....+++..     ..+++.     ..@++.    ..@@+++@.    ..+++.  ..  ..+++@..  ..@@+++.      ..@+.     ..@+++..    ..@++.     ..@+++..     ..+++.  ..  ..++..     ..+++.      ..++.  ..  ..+++.  ..  ..+++.  ...  ..+.  ..  ..++@.  ..  ..++.      ..+++.  ..  ..+++.  ..  ..++.  ..  ..+++.  ..  ..++.  ......+++.  ......+++.  ..  ..++.  ..  ..++++@.  ...+++@@@@.  ..+++.  .  ...+++.  ..@@@@++.   .   ..++.   ..  ..+.  ..  ..+++.  ..  ..+++.  ..  ..++.  ..  ..+++.  ......++@..  ....+++.  ..  ..+++.  ..  ..++.  ...  ..++..  . ...++.  ..  ..+++@....  ..++++.  .   ..+.     ..@+++.  ..  ..++.  ..  ..+++@.  .  ..+++.  ......++..  ....@+++@...  ...++.  ..  ..+++.  ..  ..+++++@@@@@@+++++@@@@@@+++++.    ..+++.  ..  ..+++@@@@@@@@@+++@@.  ..@@++@@@.  ...++++..  ...++++@.  ..@++++++.   ..++++++.   ..++..   .  ..@++.  .  ..@@++@@@....+++++@....@@++++@.  .  ..@+.       ..++........@+++.  ....+++++@..  ..++++@........+",
"+@@@@@@@@@+@....  ..+++.  ..  ..+++.  ..  ..++.  ..  ..+++.  ..  ..++..  ....@+++.  ..  ..+++.  ..  ..++...  ..@@+++@...  ..+++.  ..  ..+++@@.  ..@@+++.  . .  ..+.  ..  ..+++.  ..  ..++.  ..  ..+++.  ..  ..+++.  .   ..++.  ......+++..  .....++.  ..  ..+++.  ..  ..+++.  . .  ..+.  ..  ..++@.  ..  ..++.....  ..+++.  ..  ..+++.  ..  ..++.  ......+++.  ..  ..++.  ....@@+++.  ....@@+++.  ......++.  ..  ..++++@.  ..@+++@@@@.  ..+++.  .  ...+++.  ..@@@@++.  . .  ..++.    .  ..+.  ..  ..+++.  ..  ..+++.  ..  ..++.  ..  ..+++..  .....++@@.  ..@@+++.  ..  ..+++.  ..  ..++.  . .  ..++@..  ....++.  ..  ..+++@@..  ...++++.  .   ..+....  ..@+++.....  ..++.....  ..+++@.  .  ..+++.  ....@@++.     ..@+++@@..  ...++.   .  ..+++.  ..  ..+++++@@@@@@+++++@@@@@@+++++.    ..+++....  ...+++........@+++...  ...@++@@..  ...++++.  ...@++++@..  ..++++++.   ..++++++.   ..++@....  ...@++..   ...@@++@@@@@@@+++++@@@@@@@++++...   ...@+..  .  ...++.      ..+++.  ..@@+++++@@.  ..++++@@@@@@@@@+",
"+@@@@@@@@@+@....  ..+++.  ..  ..+++.  ......++.  ..  ..+++.  ..  ..++.      ..+++.  ..  ..+++.  ..  ..++@..  ..@@+++@@..  ..+++.  .  ...+++@@.  ..@@+++.  . .  ..+.  ..  ..+++.  ..  ..++.  ..  ..+++.  ..  ..+++.   .....++.  ......+++@.  .....++.  ..  ..+++.  ..  ..+++.  . .  ..+..    ...++@.  ..  ..++@...  ...+++.  ..  ..+++.     ...++.  ......+++.  ..  ..++.     ..@+++.     ..@+++.  ......++.      ..++++@.  ..@+++@@@@.  ..+++.    ...@+++.  ..@@@@++.  . .  ..++.  .    ..+.  ..  ..+++.     ...+++.  ..  ..++.     ...+++@..  ..@@++@@.  ..@@+++.  ..  ..+++.  ..  ..++.  . .  ..++@..  ...@++..    ...+++@..  ....++++.  ..  ..+@...  ..@+++@...  ...++@..   ...+++..  .  ..+++.     ..@++.  ..  ..+++@@.  ...@++..    ...+++.  ..  ..+++++@@@@@@+++++@@@@@@+++++..  ...+++@..  ....+++.      ..+++.      ..++@@.  ...@++++.  ...@++++@@.  ..++++++......++++++......++@@..  ....@++.  ......@++@@@@@@@+++++@@@@@@@++++.       ..+@.  .  ...++.........+++.  ..@@+++++@@.  ..++++@@@@@@@@@+",
"+@@@@@@@@@+..     ..+++.  ..  ..+++.  ......++.  ..  ..+++.      ..++..  .....+++.  ..  ..+++.  ..  ..++@@.  ..@@+++@@@.  ..+++.    ....+++@@.  ..@@+++.  . .  ..+.  ..  ..+++.  ..  ..++.  ..  ..+++.  ..  ..+++.  ......++..    ..@+++@.  ..@@@++.  ..  ..+++.  ..  ..+++.  . .  ..+@..  ....++@.  ..  ..++@..  ....+++.      ..+++.  ..  ..++.  .....@+++.  ..  ..++.  .....@+++.  .....@+++.  .   ..++.  ..  ..++++@.  ..@+++.....  ..+++.  .  ..@+++.  ..@@@@++.  . .  ..++.  ..   ..+.  ..  ..+++.  ......+++.  ..  ..++.  .  ...+++@@..  ..@++@@.  ..@@+++.  ..  ..+++.  ..  ..++.  . .  ..++.. .  ..@++@..  ....+++..  ....@++++.   .  ..+@@@.  ..@+++@..  ....++.....  ..+++.  ..  ..+++.....  ..++.  ..  ..+++@..  ...@++.  .   ..+++..     ..+++++@@@@@@+++++@@@@@@+++++@.  ...+++@@.  ...@+++.........+++...  ....++@..  ...@++++.  ..@@++++@@.  ..++++++@.....++++++@.....++@..  ....@@++.  .    ..++@@@@@@@+++++@@@@@@@++++...   ....+..  .  ..@++.      ..+++.  ..@@+++++@@.  ..++++@@@@@@@@@+",
"+@@@@@@@@@+.  ..  ..+++.  ..  ..+++.  .....@++.  ..  ..+++.  ......++@.  .....+++.  ..  ..+++.  ..  ..++@@.  ..@@+++@@@.  ..+++.  .  ..@+++@@.  ..@@+++.  . .  ..+.  ..  ..+++.  ..  ..++.  ..  ..+++.  ..  ..+++.  ...@@@++@....  ..+++@.  ..@@@++.  ..  ..+++.  ..  ..+++.  . .  ..+..    ..@++@.  ..  ..++..  ....@+++.  ..  ..+++.  ..  ..++.  ..  ..+++.  ..  ..++.  .....@+++.  .....@+++.  ..  ..++.  ..  ..++++@.  ..@+++.  ..  ..+++.  .  ..@+++.  ..@@@@++.  ...  ..++.  ...  ..+.  ..  ..+++.  .....@+++.  ..  ..++.  ..  ..+++.....  ..++@@.  ..@@+++.  ..  ..+++.  ..  ..++..  .  ...++.  ..  ..++@@.  ...@+++.  ....@@++++.   .  ..+@@@.  ..@+++..  ....@++.  ..  ..+++.       ..++@....  ..++.  ..  ..+++@.  ...@@++.  ..  ..+++@...  ...+++++.....@+++++.....@+++++@.....@+++@@.....@@+++@........+++@..  ....++@.  ...@@++++.  ..@@++++@@.  ..++++++.....@++++++.....@++@.  .   ..@++.  ..  ...++@@@@@@@+++++@@@@@@@++++@.  .  ...+.       ..++.........+++.  ..@@+++++@@.  ..++++@@@@@@@@@+",
"+@@@@@@@@@+.  ..  ..+++.  ..  ..+++.  ..  ..++.  ..  ..+++.  ......++@.  ..@@@+++.  ..  ..+++.  ..  ..++...  ...@+++@@@.  ..+++.  ..  ..+++...  ...@+++.  . .  ..+.  ..  ..+++.  ..  ..++.  ..  ..+++.  ..  ..+++.  ..@@@@++.....  ..+++@.  ....@++.  ..  ..+++..    ...+++..  .  ...+.  ..  ..++@.  ..  ..++.  .....@+++.  ..  ..+++.  ..  ..++.  ..  ..+++.  .  ...++.  .....@+++.  ..@@@@+++.  ..  ..++.  ..  ..++++..  ..@+++.  ..  ..+++.  ..  ..+++.  .....@++.  ...  ..++.  ...  ..+.  ..  ..+++.  ..@@@@+++.  ..  ..++.  ..  ..+++.  ..  ..++@@.  ..@@+++.  ..  ..+++..    ...++@.  .  ...++.  ..  ..++@@.  ..@@+++.  .....@++++.  ..  ..+@@@.  ..@+++.  .....@++.  ..  ..+++.....  ...++....  ...++.  ..  ..+++@.  ...@@++.  ..  ..+++@..  ....+++++.   ..+++++.   ..+++++@.  ..@+++@@.  ..@@+++@@@@@@@@@+++@@.....@@++..  ...@@++++.  ..@@++++@..  ..++++++.   ..++++++.   ..++@. .  .  ..++.  ..  ...++@@@@@@@+++++@@@@@@@++++@........@+..  .  ...++@........+++.  ..@@+++++@@.  ..++++@@@@@@@@@+",
"+@@@@@@@@@+..     ..+++.     ...+++..    ...++..     ..+++..    ..@++@.  ..@@@+++..     ..+++.  ..  ..++.      ..+++@@@.  ..+++.  ..  ..+++.      ..+++.  ...  ..+.  ..  ..+++..    ...++.     ...+++..     ..+++.  ..@@@@++.     ...+++@..    ..++..     ..+++@..  ....+++@.  .  ...+.  ..  ..++@..    ...++.      ..+++.  ..  ..+++.     ...++..    ...+++.    ....++.      ..+++.  ..@@@@+++..     ..++.  ..  ..++++.    ..+++..    ...+++.  ..  ..+++.      ..++.  ...  ..++.  ...  ..+..    ...+++.  ..@@@@+++..    ...++.  ..  ..+++..    ...++@@.  ..@@+++..    ...+++@..  ....++@.  .  ..@++.  ..  ..++@@.  ..@@+++.      ..++++..    ...+@@@.  ..@+++.      ..++..    ...+++@....  ...++.    ....++..    ...+++@.  ..@@@++..    ...+++@.   ...@+++++.   ..+++++.   ..+++++@.  ..@+++@@.  ..@@+++@@@@@@@@@+++@@@....@@++.  ...@@@++++..  ..@++++@.  ...++++++.   ..++++++.   ..++@...  .  ..++..   .  ..++@@@@@@@+++++@@@@@@@++++@@.......@+@.  .  ...++@@@@@@@@@+++.  ..@@+++++@@.  ..++++@@@@@@@@@+",
"+@@@@@@@@@+@........+++.........+++@........++@........+++@.......@++@.....@@@+++@....  ..+++.........++.........+++@@@.  ..+++.........+++.........+++..........+.........+++@........++.  ......+++@....  ..+++.....@@@@++.........+++@@.......++@........+++@@......@+++@........@+.........++@@...  ...++.........+++.........+++.........++@........+++........@++.........+++.....@@@@+++@........++.........++++.......+++@........+++.........+++.........++..........++..........+@........+++.....@@@@+++@...  ...++.........+++@........++@@.....@@+++@........+++@@......@++@........@++.........++@@.....@@+++.........++++@........+@@@.....@+++.........++@........+++@@@@.....+++........@++@........+++@.....@@@++@........+++@......@@+++++......+++++..  ..+++++@.....@+++@@.....@@+++@@@@@@@@@+++@@@@@@@@@++.  ...@@@++++@.  ..@++++..  ...++++++......++++++..  ..++@@...   ...++@.........++@@@@@@@+++++@@@@@@@++++@@@@@@@@@@+@........@++@@@@@@@@@+++.  ..@@+++++@@.  ..++++@@@@@@@@@+",
"+@@@@@@@@@+@@.......+++@.......@+++@@......@++@@.......+++@@......@++@@....@@@+++.....  ..+++@........++@........+++....  ..+++@........+++@........+++@....@....+@........+++@@......@++.  .....@+++@@...  ..+++@....@@@@++@.......@+++@@@......++@@.......+++@@@....@@+++@@.......@+@........++....  ...@++@........+++@........+++@.......@++@@......@+++@......@@++@........+++@....@@@@+++@@.......++@........++++@......+++@@......@+++@........+++@........++@....@....++@....@....+@@......@+++@....@@@@+++@@...  ..++@........+++@@......@++@@@....@@+++@@......@+++@@@....@@++@@.......@++@........++@@@....@@+++@........++++@@......@+@@@@....@+++@........++@@......@+++@@@@@....+++@......@@++@@......@+++@@....@@@++@@......@+++@@.....@@+++++@.....+++++.  ...+++++@@....@+++@@@....@@+++@@@@@@@@@+++@@@@@@@@@++.....@@@@++++@..  ..++++.  ...@++++++@.....++++++.  ...++@@@@.......++@@........++@@@@@@@+++++@@@@@@@++++@@@@@@@@@@+@@.......@++@@@@@@@@@+++.  ...@+++++...  ..++++@@@@@@@@@+",
"+@@@@@@@@@+@@@@@@@@@+++@@@@@@@@@+++@@@@@@@@@++@@@@@@@@@+++@@@@@@@@@++@@@@@@@@@+++.     ...+++@@@@@@@@@++@@@@@@@@@+++.    ...+++@@@@@@@@@+++@@@@@@@@@+++@@@@@@@@@@+@@@@@@@@@+++@@@@@@@@@++.  ..@@@@+++@@@@.  ..+++@@@@@@@@@++@@@@@@@@@+++@@@@@@@@@++@@@@@@@@@+++@@@@@@@@@+++@@@@@@@@@@+@@@@@@@@@++.    ....@++@@@@@@@@@+++@@@@@@@@@+++@@@@@@@@@++@@@@@@@@@+++@@@@@@@@@++@@@@@@@@@+++@@@@@@@@@+++@@@@@@@@@++@@@@@@@@@++++@@@@@@@+++@@@@@@@@@+++@@@@@@@@@+++@@@@@@@@@++@@@@@@@@@@++@@@@@@@@@@+@@@@@@@@@+++@@@@@@@@@+++@@@@.....++@@@@@@@@@+++@@@@@@@@@++@@@@@@@@@+++@@@@@@@@@+++@@@@@@@@@++@@@@@@@@@@++@@@@@@@@@++@@@@@@@@@+++@@@@@@@@@++++@@@@@@@@@+@@@@@@@@@+++@@@@@@@@@++@@@@@@@@@+++@@@@@@@@@+++@@@@@@@@@++@@@@@@@@@+++@@@@@@@@@++@@@@@@@@@+++@@@@@@@@@+++++@@@@@@+++++......+++++@@@@@@@+++@@@@@@@@@+++@@@@@@@@@+++@@@@@@@@@++@....@@@@++++@@.....++++......@++++++@@@@@@++++++......++@@@@@.....@++@@@@@@@@@@++@@@@@@@+++++@@@@@@@++++@@@@@@@@@@+@@@@@@@@@@++@@@@@@@@@+++.    ..+++++.    ..++++@@@@@@@@@+",
"+@@@@@@@@@+@@@@@@@@@+++@@@@@@@@@+++@@@@@@@@@++@@@@@@@@@+++@@@@@@@@@++@@@@@@@@@+++.........+++@@@@@@@@@++@@@@@@@@@+++........+++@@@@@@@@@+++@@@@@@@@@+++@@@@@@@@@@+@@@@@@@@@+++@@@@@@@@@++.....@@@@+++@@@@.....+++@@@@@@@@@++@@@@@@@@@+++@@@@@@@@@++@@@@@@@@@+++@@@@@@@@@+++@@@@@@@@@@+@@@@@@@@@++........@@++@@@@@@@@@+++@@@@@@@@@+++@@@@@@@@@++@@@@@@@@@+++@@@@@@@@@++@@@@@@@@@+++@@@@@@@@@+++@@@@@@@@@++@@@@@@@@@++++@@@@@@@+++@@@@@@@@@+++@@@@@@@@@+++@@@@@@@@@++@@@@@@@@@@++@@@@@@@@@@+@@@@@@@@@+++@@@@@@@@@+++@@@@@....++@@@@@@@@@+++@@@@@@@@@++@@@@@@@@@+++@@@@@@@@@+++@@@@@@@@@++@@@@@@@@@@++@@@@@@@@@++@@@@@@@@@+++@@@@@@@@@++++@@@@@@@@@+@@@@@@@@@+++@@@@@@@@@++@@@@@@@@@+++@@@@@@@@@+++@@@@@@@@@++@@@@@@@@@+++@@@@@@@@@++@@@@@@@@@+++@@@@@@@@@+++++@@@@@@+++++@....@+++++@@@@@@@+++@@@@@@@@@+++@@@@@@@@@+++@@@@@@@@@++@@@@@@@@@++++@@@....++++@....@@++++++@@@@@@++++++@....@++@@@@@@@@@@@++@@@@@@@@@@++@@@@@@@+++++@@@@@@@++++@@@@@@@@@@+@@@@@@@@@@++@@@@@@@@@+++.......+++++.......++++@@@@@@@@@+",
"+@@@@@@@@@+@@@@@@@@@+++@@@@@@@@@+++@@@@@@@@@++@@@@@@@@@+++@@@@@@@@@++@@@@@@@@@+++@.......@+++@@@@@@@@@++@@@@@@@@@+++@......@+++@@@@@@@@@+++@@@@@@@@@+++@@@@@@@@@@+@@@@@@@@@+++@@@@@@@@@++@....@@@@+++@@@@@....+++@@@@@@@@@++@@@@@@@@@+++@@@@@@@@@++@@@@@@@@@+++@@@@@@@@@+++@@@@@@@@@@+@@@@@@@@@++@......@@@++@@@@@@@@@+++@@@@@@@@@+++@@@@@@@@@++@@@@@@@@@+++@@@@@@@@@++@@@@@@@@@+++@@@@@@@@@+++@@@@@@@@@++@@@@@@@@@++++@@@@@@@+++@@@@@@@@@+++@@@@@@@@@+++@@@@@@@@@++@@@@@@@@@@++@@@@@@@@@@+@@@@@@@@@+++@@@@@@@@@+++@@@@@@@@@++@@@@@@@@@+++@@@@@@@@@++@@@@@@@@@+++@@@@@@@@@+++@@@@@@@@@++@@@@@@@@@@++@@@@@@@@@++@@@@@@@@@+++@@@@@@@@@++++@@@@@@@@@+@@@@@@@@@+++@@@@@@@@@++@@@@@@@@@+++@@@@@@@@@+++@@@@@@@@@++@@@@@@@@@+++@@@@@@@@@++@@@@@@@@@+++@@@@@@@@@+++++@@@@@@+++++@@@@@@+++++@@@@@@@+++@@@@@@@@@+++@@@@@@@@@+++@@@@@@@@@++@@@@@@@@@++++@@@@@@@++++@@@@@@@++++++@@@@@@++++++@@@@@@++@@@@@@@@@@@++@@@@@@@@@@++@@@@@@@+++++@@@@@@@++++@@@@@@@@@@+@@@@@@@@@@++@@@@@@@@@+++@......+++++@......++++@@@@@@@@@+"};
