/* XPM */
static char *sb32x32[] = {
/* width height ncolors chars_per_pixel */
"32 32 14 1",
/* colors */
"  c #000000",
". c #FF6666",
"X c #0066CC",
"o c #3DEB3D",
"O c #FF9999",
"+ c #0099FF",
"@ c #333333",
"# c #33CC66",
"$ c #FF0000",
"% c #FF3366",
"& c #FFFFFF",
"* c #FF3333",
"= c #CC6666",
"- c None",
/* pixels */
"&&&&&&&&&&&&&&&&&&&&&&&&&&&&&&&&",
"&&&&&&&&&&&&&&&&&&&&&&&&&&&&&&&&",
"&&&&&&&&&&&&&&&&&&&&&&&&&&&&&&&&",
"&&&&&&@@@@@@@@&&@       @&&&&&&&",
"&&&&&@@@@@&&@@@&@@@@@&&@ @&&&&&&",
"&&&&&@@  @&&@ @&@@  @&&@ @&&&&&&",
"&&&&&@@  @&&&&&&@@  @&&@ @&&&&&&",
"&&&&&&        &&@@  @  @ &&&&&&&",
"&&&&&&&&&&&&@@@&@@  @&&@ @&&&&&&",
"&&&&&@@@@@&&@@@&@   @&&@ @&&&&&&",
"&&&&&@@@@@&&@@@&@   @&&@ @&&&&&&",
"&&&&&&@     @@&&@        &&&&&&&",
"&&&&&&&&&&&&&&&&&&&&&&&&&&&&&&&&",
"&&&&&X++&#oo&=$$$$$$$$$%%$&&&&&&",
"&&&&&&X++&#oo&=$*.O.O.O.$&&&&&&&",
"&&&&&&&X++&#oo&=$*$$$$.$&&&&&&&&",
"&&&&&&&&X++&#oo&=$$$$.$&&&&&&&&&",
"&&&&&&&&&X++&#oo&=%$.$&&&&&&&&&&",
"&&&&&&&&&&X++&#oo&=%$&&&&&&&&&&&",
"&&&&&&&&&&&X&&&#&&&=&&&&&&&&&&&&",
"&&&&&&&&&&&&&&&&&&&&&&&&&&&&&&&&",
"&&&&&&&&&&&&&&&&&&&&&&&&&&&&&&&&",
"&&&&&&&&&&&&&&&&&&&&&&&&&&&&&&&&",
"&&&&&&&&&&&&&&&&&&&&&&&&&&&&&&&&",
"&&&&&&&&&&&&&&&&&&&&&&&&&&&&&&&&",
"&&&&&&&&&&&&&&&&&&&&&&&&&&&&&&&&",
"&&&&&&&&&&&&&&&&&&&&&&&&&&&&&&&&",
"&&&&&&&&&&&&&&&&&&&&&&&&&&&&&&&&",
"&&&&&&&&&&&&&&&&&&&&&&&&&&&&&&&&",
"&&&&&&&&&&&&&&&&&&&&&&&&&&&&&&&&",
"&&&&&&&&&&&&&&&&&&&&&&&&&&&&&&&&",
"&&&&&&&&&&&&&&&&&&&&&&&&&&&&&&&&"
};
