/* XPM */
static char * fixedfont_xpm[] = {
"256 71 3 1",
" 	c None",
".	c #FFFF00",
"+	c #000000",
".      .        .        .        .        .        .       .        .        .      .      .        .      .            .        .        .        .        .        .        .       .        .        .            .        .        .        ...............",
".      .        .        .        .        .        .       .        .        .      .      .        .      .            .        .        .        .        .        .        .       .        .        .            .        .        .        ...............",
".      .        .        .        .        .        .       .        .        .  +   .   +  .        .      .            .        .        .        .        .        .        .       .        .        .            .        .        .        ...............",
".      .        . +      .        .     +  .        .   ++  .        . +      .  +   .   +  . +      . ++   .            .        .        .        .        .        .        .  +    .        .        .            .        .        .        ...............",
".      .        . +      .        .     +  .        .  +    .        . +      .      .      . +      .  +   .            .        .        .        .        .        .        .  +    .        .        .            .        .        .        ...............",
".      .  +++   . ++++   .  +++   .  ++++  .  +++   .  +    .  ++++  . ++++   . ++   .  ++  . +   +  .  +   . ++++++++   . ++++   .  +++   . ++++   .  ++++  . +  ++  .  ++++  . ++++  . +   +  . +   +  . +       +  . +   +  . +   +  . +++++  ...............",
".      .     +  . +   +  . +   +  . +   +  . +   +  .  +    . +   +  . +   +  .  +   .   +  . +  +   .  +   . +   +   +  . +   +  . +   +  . +   +  . +   +  . + +    . +      .  +    . +   +  . +   +  . +       +  . +   +  . +   +  .     +  ...............",
".      .  ++++  . +   +  . +      . +   +  . +   +  . ++++  . +   +  . +   +  .  +   .   +  . + +    .  +   . +   +   +  . +   +  . +   +  . +   +  . +   +  . ++     .  +     .  +    . +   +  . +   +  . +       +  .  + +   . +   +  .    +   ...............",
".      . +   +  . +   +  . +      . +   +  . +   +  .  +    . +   +  . +   +  .  +   .   +  . ++     .  +   . +   +   +  . +   +  . +   +  . +   +  . +   +  . +      .   +    .  +    . +   +  . +   +  . +   +   +  .   +    . +   +  .   +    ...............",
".      . +   +  . +   +  . +      . +   +  . +++++  .  +    . +   +  . +   +  .  +   .   +  . + +    .  +   . +   +   +  . +   +  . +   +  . +   +  . +   +  . +      .    +   .  +    . +   +  . +   +  . +   +   +  .  + +   . +   +  .  +     ...............",
".      . +   +  . +   +  . +   +  . +   +  . +      .  +    . +   +  . +   +  .  +   .   +  . +  +   .  +   . +   +   +  . +   +  . +   +  . +   +  . +   +  . +      .     +  .  +    . +   +  .  + +   .  + + + +   . +   +  . +   +  . +      ...............",
".      .  ++++  . ++++   .  +++   .  ++++  .  +++   .  +    .  ++++  . +   +  . +++  .   +  . +   +  . +++  . +   +   +  . +   +  .  +++   . ++++   .  ++++  . +      . ++++   .   ++  .  ++++  .   +    .   +   +    . +   +  .  ++++  . +++++  ...............",
".      .        .        .        .        .        .       .     +  .        .      .   +  .        .      .            .        .        . +      .     +  .        .        .       .        .        .            .        .     +  .        ...............",
".      .        .        .        .        .        .       . ++++   .        .      . ++   .        .      .            .        .        . +      .     +  .        .        .       .        .        .            .        . ++++   .        ...............",
".      .        .        .        .        .        .       .        .        .      .      .        .      .            .        .        .        .        .        .        .       .        .        .            .        .        .        ...............",
".      .        .        .        .        .        .       .        .        .      .      .        .      .            .        .        .        .        .        .        .       .        .        .            .        .        .        ...............",
".      .        .        .        .        .        .       .        .        .      .      .        .      .            .        .        .        .        .        .        .       .        .        .            .        .        .        ...............",
"................................................................................................................................................................................................................................................................",
".        .        .        .        .        .        .        .        .      .        .        .        .          .         .        .        .        .        .        .        .        .        .          .        .        .        ...................",
".        .        .        .        .        .        .        .        .      .        .        .        .          .         .        .        .        .        .        .        .        .        .          .        .        .        ...................",
".        .        .        .        .        .        .        .        .      .        .        .        .          .         .        .        .        .        .        .        .        .        .          .        .        .        ...................",
".   +    . ++++   .  +++   . +++    . +++++  . +++++  .  +++   . +   +  . +++  .     +  . +   +  . +      . +     +  . +    +  .  +++   . ++++   .  +++   . ++++   .  +++   . +++++  . +   +  . +   +  . +     +  . +   +  . +   +  . +++++  ...................",
".  + +   . +   +  . +   +  . +  +   . +      . +      . +   +  . +   +  .  +   .     +  . +   +  . +      . +     +  . +    +  . +   +  . +   +  . +   +  . +   +  . +   +  .   +    . +   +  . +   +  . +     +  . +   +  . +   +  .     +  ...................",
". +   +  . +   +  . +   +  . +   +  . +      . +      . +   +  . +   +  .  +   .     +  . +  +   . +      . ++   ++  . ++   +  . +   +  . +   +  . +   +  . +   +  . +      .   +    . +   +  . +   +  . +     +  .  + +   . +   +  .     +  ...................",
". +   +  . +   +  . +      . +   +  . +      . +      . +      . +   +  .  +   .     +  . + +    . +      . + + + +  . + +  +  . +   +  . +   +  . +   +  . +   +  . +      .   +    . +   +  . +   +  . +     +  .   +    . +   +  .    +   ...................",
". +   +  . ++++   . +      . +   +  . ++++   . ++++   . +      . +++++  .  +   .     +  . +++    . +      . +  +  +  . +  + +  . +   +  . ++++   . +   +  . ++++   .  +++   .   +    . +   +  . +   +  . +     +  .   +    .  + +   .   +    ...................",
". +++++  . +   +  . +      . +   +  . +      . +      . +      . +   +  .  +   .     +  . + +    . +      . +     +  . +   ++  . +   +  . +      . +   +  . +  +   .     +  .   +    . +   +  . +   +  . +  +  +  .  + +   .   +    .  +     ...................",
". +   +  . +   +  . +   +  . +   +  . +      . +      . +  ++  . +   +  .  +   . +   +  . +  +   . +      . +     +  . +    +  . +   +  . +      . +   +  . +   +  .     +  .   +    . +   +  . +   +  . + + + +  . +   +  .   +    . +      ...................",
". +   +  . +   +  . +   +  . +  +   . +      . +      . +   +  . +   +  .  +   . +   +  . +   +  . +      . +     +  . +    +  . +   +  . +      . +   +  . +   +  . +   +  .   +    . +   +  .  + +   .  +   +   . +   +  .   +    . +      ...................",
". +   +  . ++++   .  +++   . +++    . +++++  . +      .  ++++  . +   +  . +++  .  +++   . +   +  . +++++  . +     +  . +    +  .  +++   . +      .  +++   . +   +  .  +++   .   +    .  +++   .   +    .  +   +   . +   +  .   +    . +++++  ...................",
".        .        .        .        .        .        .        .        .      .        .        .        .          .         .        .        .   +    .        .        .        .        .        .          .        .        .        ...................",
".        .        .        .        .        .        .        .        .      .        .        .        .          .         .        .        .    ++  .        .        .        .        .        .          .        .        .        ...................",
".        .        .        .        .        .        .        .        .      .        .        .        .          .         .        .        .        .        .        .        .        .        .          .        .        .        ...................",
".        .        .        .        .        .        .        .        .      .        .        .        .          .         .        .        .        .        .        .        .        .        .          .        .        .        ...................",
".        .        .        .        .        .        .        .        .      .        .        .        .          .         .        .        .        .        .        .        .        .        .          .        .        .        ...................",
"................................................................................................................................................................................................................................................................",
".        .      .        .        .         .        .        .        .        .        .     .     .      .        .        .        .        .      .      .     .     .          .         .     .     .          .          .        .      .      ........",
".        .      .        .        .         .        .        .        .        .        .     .     .      .        .        .        .        .      .      .     .     .          .         .     .     .          .          .        .      .      ........",
".        .      .        .        .         .        .        .        .        .        .     .     .      .        .        .        .        .   +  . +    .     .     .  +       .         . +   .  +  .          .          .        . +++  . +++  ........",
".  +++   .   +  .  +++   .  +++   .   +     . +++++  .   ++   . +++++  .  +++   .  +++   .     .     .  +   .  +++   .        .        .     +  .  +   .  +   .     .     . + +      .   ++    .  +  . +   .          .  +   +   .        . +    .   +  ........",
". +   +  .  ++  . +   +  . +   +  .   +     . +      .  +     .     +  . +   +  . +   +  .     .     . +++  . +   +  .        .        .     +  .  +   .  +   .     .     . + +   +  .  +  +   .     .     .          .  +   +   .        . +    .   +  ........",
". +   +  . +++  . +   +  . +   +  .  +  +   . +      . +      .    +   . +   +  . +   +  .     .     . +++  . +   +  .        .        .    +   . +    .   +  . ++  . ++  .  +   +   .  +  +   .     .     .  +   +   . +++++++  .        . +    .   +  ........",
". +  ++  .   +  .     +  .     +  .  +  +   . +      . ++++   .    +   . ++  +  . +   +  .     .     . +++  .    +   .        .   +    .    +   . +    .   +  . ++  . ++  .     +    .   ++    .     .     .   + +    .  +   +   .        . +    .   +  ........",
". + + +  .   +  .    +   .   ++   .  +  +   . ++++   . +   +  .   +    .  +++   . +   +  .     .     .  +   .   +    .        .   +    .   +    . +    .   +  .     .     .    +     .   +     .     .     . +++++++  .  +   +   . +++++  . +    .   +  ........",
". ++  +  .   +  .   +    .     +  . +   +   .     +  . +   +  .   +    . +  ++  .  ++++  .     .     .  +   .   +    . +++++  . +++++  .   +    . +    .   +  .     .     .   +      .  + + +  .     .     .   + +    .  +   +   .        . +    .   +  ........",
". +   +  .   +  .  +     . +   +  . ++++++  .     +  . +   +  .  +     . +   +  .     +  .     .     .      .        .        .   +    .  +     . +    .   +  .     .     .  +   +   . +   +   .     .     .  +   +   . +++++++  . +++++  . +    .   +  ........",
". +   +  .   +  . +      . +   +  .     +   .     +  . +   +  .  +     . +   +  .    +   . ++  . ++  .  +   .   +    .        .   +    .  +     .  +   .  +   . ++  . ++  . +   + +  . +   +   .     .     .          .  +   +   .        . +    .   +  ........",
".  +++   .   +  . +++++  .  +++   .     +   . ++++   .  +++   .  +     .  +++   . +++    . ++  . ++  .  +   .   +    .        .        . +      .  +   .  +   . ++  . ++  .     + +  .  +++ +  .     .     .          .  +   +   .        . +    .   +  ........",
".        .      .        .        .         .        .        .        .        .        .     .  +  .      .        .        .        . +      .   +  . +    .     .  +  .      +   .         .     .     .          .          .        . +++  . +++  ........",
".        .      .        .        .         .        .        .        .        .        .     . +   .      .        .        .        .        .      .      .     . +   .          .         .     .     .          .          .        .      .      ........",
".        .      .        .        .         .        .        .        .        .        .     .     .      .        .        .        .        .      .      .     .     .          .         .     .     .          .          .        .      .      ........",
".        .      .        .        .         .        .        .        .        .        .     .     .      .        .        .        .        .      .      .     .     .          .         .     .     .          .          .        .      .      ........",
".        .      .        .        .         .        .        .        .        .        .     .     .      .        .        .        .        .      .      .     .     .          .         .     .     .          .          .        .      .      ........",
"................................................................................................................................................................................................................................................................",
".        .      .      .      .      .        .         .    .         .          .        .        .         .        .........................................................................................................................................",
".        .      .      .      .      .   +    .         .    .         .          .        .        .         .        .........................................................................................................................................",
". +   +  .   +  . +    .   +  . +    .  + +   .  ++  +  . +  .         .          .   +    .        .         .        .........................................................................................................................................",
". +   +  .   +  . +    .  +   .  +   . +   +  . +  ++   . +  .         .   +++    .  +++   . +      .         .        .........................................................................................................................................",
". +   +  .  +   .  +   .  +   .  +   .        .         . +  .         .  +   +   . + + +  . +      .         .        .........................................................................................................................................",
".        .  +   .  +   .  +   .  +   .        .         . +  .         . +     +  . + +    .  +     .         .        .........................................................................................................................................",
".        . +    .   +  .  +   .  +   .        .         . +  .         . +  ++ +  .  ++    .  +     .   + +   .   +    .........................................................................................................................................",
".        . +    .   +  . +    .   +  .        .         . +  .         . + + + +  .   +    .   +    .   + +   .   +    .........................................................................................................................................",
".        . +    .   +  .  +   .  +   .        .         . +  .         . + + + +  .   ++   .   +    .   + +   .   +    .........................................................................................................................................",
".        .  +   .  +   .  +   .  +   .        .         . +  .         . + + + +  .   + +  .    +   .   + +   .   +    .........................................................................................................................................",
".        .  +   .  +   .  +   .  +   .        .         . +  .         . +  +++   . + + +  .    +   .         .        .........................................................................................................................................",
".        .   +  . +    .  +   .  +   .        .         . +  .         .  +       .  +++   .     +  .         .        .........................................................................................................................................",
".        .   +  . +    .   +  . +    .        .         . +  . ++++++  .   +++    .   +    .     +  .         .        .........................................................................................................................................",
".        .      .      .      .      .        .         .    .         .          .        .        .         .        .........................................................................................................................................",
".        .      .      .      .      .        .         .    .         .          .        .        .         .        .........................................................................................................................................",
".        .      .      .      .      .        .         .    .         .          .        .        .         .        .........................................................................................................................................",
".        .      .      .      .      .        .         .    .         .          .        .        .         .        ........................................................................................................................................."};
